<svg xmlns="http://www.w3.org/2000/svg" width="64" height="64" viewBox="0 0 64 64" role="img" aria-labelledby="title">
  <title id="title">GPT-Image CLI pixel image operator</title>
  <g shape-rendering="crispEdges">
    <rect width="64" height="64" fill="#050713"/>
    <rect x="2" y="2" width="60" height="60" fill="#09112b" stroke="#13f4ef" stroke-width="3"/>
    <path fill="#263466" d="M8 8h16v2H10v14H8zm32 0h16v16h-2V10H40zM8 40h2v14h14v2H8zm46 0h2v16H40v-2h14z"/>
    <path fill="#ff3bd4" d="M29 5h6v7h-6zM24 4h16v3H24zM6 27h7v13H6zm45 0h7v13h-7z"/>
    <path fill="#f7f4ff" d="M18 14h28v5h5v23h-5v5H18v-5h-5V19h5z"/>
    <path fill="#10183a" d="M18 20h28v19H18z"/>
    <path fill="#13f4ef" d="M21 23h8v7h-8zm22 0h3v16h-3zM29 33h7v4h-7z"/>
    <path fill="#b8ff4a" d="M23 25h6v5h-6zm13 0h6v5h-6z"/>
    <path fill="#ff3bd4" d="M20 42h24v5H20zm7 5h11v4H27z"/>
    <path fill="#b8ff4a" d="M29 45h7v9h-7z"/>
    <path fill="#13f4ef" d="M10 49h7v7h-7zm40-41h7v7h-7z"/>
    <path fill="#ffb45e" d="M47 17h5v5h-5z"/>
  </g>
</svg>
